<svg xmlns="http://www.w3.org/2000/svg" viewBox="0 0 33 33.13"><defs><style>.logogithub-1{fill:#333;}.logogithub-2,.logogithub-3,.logogithub-4{fill:#fff;}.logogithub-3,.logogithub-4{stroke:#fff;stroke-width:0.25px;}.logogithub-3{stroke-miterlimit:10;}.logogithub-4{stroke-linecap:round;stroke-linejoin:round;}</style></defs><title>github</title><g id="Layer_2" data-name="Layer 2"><g id="logos"><rect class="logogithub-1" width="33" height="33" rx="12"/><path class="logogithub-2" d="M12.55,30.74c-.1.2-.19.09-.29.11l-.28,0a5.54,5.54,0,0,1-.57-.07,4.09,4.09,0,0,1-1.12-.32,2.35,2.35,0,0,1-.95-.77A2.6,2.6,0,0,1,9,28.53a3.19,3.19,0,0,0-.63-2A4,4,0,0,0,6.5,25.5h0a2.86,2.86,0,0,1,2.07.85,3.56,3.56,0,0,1,.81,2.12A1.79,1.79,0,0,0,10.48,30a4.11,4.11,0,0,0,1,.28l.54.05.26,0c.09,0,.18-.07.27.13Z"/><path class="logogithub-3" d="M22.86,21.11c-.08.09-.2.23-.36.39a8.65,8.65,0,0,1-4.11,2.29,8.61,8.61,0,0,1-3.78,0A8.53,8.53,0,0,1,8,15.5a9.07,9.07,0,0,1,.16-1.66,8.4,8.4,0,0,1,1.55-3.42l.17-4.7L13.4,7.59a8.45,8.45,0,0,1,5.91-.11l3.32-1.76.14,4.07a8.51,8.51,0,0,1,2.13,4.4A8.08,8.08,0,0,1,25,15.5a8.44,8.44,0,0,1-1.38,4.62Z"/><path class="logogithub-4" d="M21.43,33H11.57a32.41,32.41,0,0,1,2-7.25,9.31,9.31,0,0,1,1.08-2,9,9,0,0,0,3.78,0,10.62,10.62,0,0,1,1.22,2.28h0A33.83,33.83,0,0,1,21.43,33Z"/></g></g></svg>