<svg xmlns="http://www.w3.org/2000/svg" viewBox="0 0 72.7 72.26"><defs><style>.cls-1{fill:none;}.cls-2{fill:#4d4d4d;}.cls-3{fill:#1a1a1a;}</style></defs><title>engrane2</title><g id="Layer_2" data-name="Layer 2"><g id="partedeventana"><path class="cls-1" d="M36.35,15.93a21,21,0,1,0,21,21A21,21,0,0,0,36.35,15.93Zm0,28a8,8,0,1,1,8-8A8,8,0,0,1,36.35,43.93Z"/><path class="cls-1" d="M36.35,15.93a21,21,0,1,0,21,21A21,21,0,0,0,36.35,15.93Zm0,28a8,8,0,1,1,8-8A8,8,0,0,1,36.35,43.93Z"/><path class="cls-1" d="M36.35,15.93a21,21,0,1,0,21,21A21,21,0,0,0,36.35,15.93Zm0,28a8,8,0,1,1,8-8A8,8,0,0,1,36.35,43.93Z"/><path class="cls-1" d="M36.35,15.93a21,21,0,1,0,21,21A21,21,0,0,0,36.35,15.93Zm0,28a8,8,0,1,1,8-8A8,8,0,0,1,36.35,43.93Z"/><path class="cls-2" d="M66.85,36.43a30.79,30.79,0,0,0-.29-4.21l6.14-5.54a36.91,36.91,0,0,0-3.16-8.22l-8.14.41a31.29,31.29,0,0,0-7-7.27l.42-8.3A36.72,36.72,0,0,0,47.12,0l-5.4,6a31.53,31.53,0,0,0-10.87-.15L25.58,0a36.72,36.72,0,0,0-7.72,3.3l.39,7.61a31.18,31.18,0,0,0-7.92,7.91l-7.17-.36A36.91,36.91,0,0,0,0,26.68l5.25,4.75A31.53,31.53,0,0,0,5.4,42.3L.45,46.77a37.07,37.07,0,0,0,3.81,8.57L11,55a31.29,31.29,0,0,0,7.27,7L18,68.61A36.59,36.59,0,0,0,27,72.26l4.62-5.12a30.89,30.89,0,0,0,9.3-.13l4.74,5.25a36.59,36.59,0,0,0,9.06-3.65l-.37-7.32A30.73,30.73,0,0,0,60.71,55l7.73.39a37.07,37.07,0,0,0,3.81-8.57l-5.82-5.25A30.58,30.58,0,0,0,66.85,36.43Zm-30.5,21.5a21,21,0,1,1,21-21A21,21,0,0,1,36.35,57.93Z"/><circle class="cls-3" cx="36.35" cy="35.93" r="8"/></g></g></svg>