<svg xmlns="http://www.w3.org/2000/svg" viewBox="0 0 52.58 52.58"><defs><style>.claritacss-1{fill:none;}.claritacss-2{fill:#4d4d4d;}.claritacss-3{fill:#1a1a1a;}</style></defs><title>engrane</title><g id="Layer_2" data-name="Layer 2"><g id="partedeventana"><path class="claritacss-1" d="M41,24.15A14.77,14.77,0,1,0,29.27,41.44,14.76,14.76,0,0,0,41,24.15ZM27.41,31.77a5.63,5.63,0,1,1,4.46-6.59A5.62,5.62,0,0,1,27.41,31.77Z"/><path class="claritacss-1" d="M41,24.15A14.77,14.77,0,1,0,29.27,41.44,14.76,14.76,0,0,0,41,24.15ZM27.41,31.77a5.63,5.63,0,1,1,4.46-6.59A5.62,5.62,0,0,1,27.41,31.77Z"/><path class="claritacss-1" d="M41,24.15A14.77,14.77,0,1,0,29.27,41.44,14.76,14.76,0,0,0,41,24.15ZM27.41,31.77a5.63,5.63,0,1,1,4.46-6.59A5.62,5.62,0,0,1,27.41,31.77Z"/><path class="claritacss-1" d="M41,24.15A14.77,14.77,0,1,0,29.27,41.44,14.76,14.76,0,0,0,41,24.15ZM27.41,31.77a5.63,5.63,0,1,1,4.46-6.59A5.62,5.62,0,0,1,27.41,31.77Z"/><path class="claritacss-2" d="M47.86,26.11a20.82,20.82,0,0,0-.38-3.57,22.39,22.39,0,0,0-.76-2.87L50.22,15A25.5,25.5,0,0,0,47,9.77l-5.57,1.36A21.94,21.94,0,0,0,35.59,7l-.81-5.79A25.36,25.36,0,0,0,29,0L26.07,4.84a23.18,23.18,0,0,0-4.12.4,22.14,22.14,0,0,0-3.4,1L14.13,2.86a25.73,25.73,0,0,0-4.89,3.3l1.28,5.21A21.69,21.69,0,0,0,6.1,17.88l-5,.71A26.27,26.27,0,0,0,0,24.69l4.26,2.58a22.31,22.31,0,0,0,.39,3.51,22.57,22.57,0,0,0,1.16,4L3,38.5a26.78,26.78,0,0,0,3.77,5.42l4.63-1.13a22,22,0,0,0,5.95,3.85L18,51.26a25.49,25.49,0,0,0,6.74,1.32l2.52-4.15a21.44,21.44,0,0,0,2.94-.36,21.8,21.8,0,0,0,3.46-1l4,3a25.61,25.61,0,0,0,5.78-3.72l-1.23-5a21.75,21.75,0,0,0,3.54-5.22l5.39-.76A25.76,25.76,0,0,0,52.58,29ZM29.27,41.44A14.77,14.77,0,1,1,41,24.15,14.77,14.77,0,0,1,29.27,41.44Z"/><path class="claritacss-3" d="M27.41,31.77a5.63,5.63,0,1,1,4.46-6.59A5.62,5.62,0,0,1,27.41,31.77Z"/></g></g></svg>