<svg xmlns="http://www.w3.org/2000/svg" viewBox="0 0 36.85 36.63"><defs><style>.cls-1{fill:none;}.cls-2{fill:#4d4d4d;}.cls-3{fill:#1a1a1a;}</style></defs><title>engrane1</title><g id="Layer_2" data-name="Layer 2"><g id="partedeventana"><path class="cls-1" d="M18,8.09h-.55a10.65,10.65,0,1,0,0,21.29H18A10.65,10.65,0,0,0,18,8.09Zm-.55,14.18a4.06,4.06,0,1,1,4.05-4.05A4.06,4.06,0,0,1,17.43,22.27Z"/><path class="cls-1" d="M18,8.09h-.55a10.65,10.65,0,1,0,0,21.29H18A10.65,10.65,0,0,0,18,8.09Zm-.55,14.18a4.06,4.06,0,1,1,4.05-4.05A4.06,4.06,0,0,1,17.43,22.27Z"/><path class="cls-1" d="M18,8.09h-.55a10.65,10.65,0,1,0,0,21.29H18A10.65,10.65,0,0,0,18,8.09Zm-.55,14.18a4.06,4.06,0,1,1,4.05-4.05A4.06,4.06,0,0,1,17.43,22.27Z"/><path class="cls-1" d="M18,8.09h-.55a10.65,10.65,0,1,0,0,21.29H18A10.65,10.65,0,0,0,18,8.09Zm-.55,14.18a4.06,4.06,0,1,1,4.05-4.05A4.06,4.06,0,0,1,17.43,22.27Z"/><path class="cls-1" d="M7.78,18.72A10.65,10.65,0,0,1,17.88,8.09h-.45a10.65,10.65,0,1,0,0,21.29h.45A10.66,10.66,0,0,1,7.78,18.72Z"/><path class="cls-2" d="M33.88,18.47a16.72,16.72,0,0,0-.14-2.14l3.11-2.8a18.56,18.56,0,0,0-1.6-4.17l-4.13.21a15.71,15.71,0,0,0-3.54-3.69l.22-4.2A18.68,18.68,0,0,0,23.88,0L21.15,3A16.36,16.36,0,0,0,15.64,3L13,0A18.68,18.68,0,0,0,9.05,1.68l.2,3.85a15.76,15.76,0,0,0-4,4L1.6,9.36A18.56,18.56,0,0,0,0,13.53l2.66,2.4a16.42,16.42,0,0,0-.2,2.54,15.26,15.26,0,0,0,.28,3L.23,23.71a18.41,18.41,0,0,0,1.93,4.34l3.43-.17a15.66,15.66,0,0,0,3.68,3.54L9.1,34.78a18.86,18.86,0,0,0,4.6,1.85L16,34a15,15,0,0,0,2.13.15A15.67,15.67,0,0,0,20.75,34l2.4,2.66a18.86,18.86,0,0,0,4.6-1.85l-.19-3.71a15.5,15.5,0,0,0,3.21-3.21l3.92.19a18.41,18.41,0,0,0,1.93-4.34l-2.95-2.66A15.67,15.67,0,0,0,33.88,18.47ZM18.43,29.37h-1a10.65,10.65,0,1,1,0-21.29h1a10.65,10.65,0,0,1,0,21.29Z"/><path class="cls-3" d="M21.48,18.22a4.06,4.06,0,1,1-4.05-4.06A4.06,4.06,0,0,1,21.48,18.22Z"/></g></g></svg>